<svg xmlns="http://www.w3.org/2000/svg" viewBox="0 0 512 512">
    <path fill="#000000" d="M0 0h512v512H0z"/>
    <path fill="#bbbbbb" d="M145 382q-27 0-50-10-22-10-40-27-17-17-27-40t-10-50q0-26 10-49t27-40q17-17 40-27t50-10q28 0 53 11 25 10 43 29l-18 19q-14-16-35-25t-43-9q-21 0-39 8-18 7-32 21-13 14-21 33-7 18-7 39 0 22 7 40 8 19 21 33 14 14 32 21 18 8 39 8 25 0 44-11 21-11 33-30 13-19 15-42h-88v-24h115v11q0 25-9 47t-25 39q-16 16-38 26-22 9-47 9zm188-4h-27V133h105q24 0 42 9t27 24q11 16 11 37 0 25-15 42-14 17-38 24l55 109h-29l-53-105h-78zm0-221v93h76q25 0 40-13 15-12 15-34 0-21-15-33-15-13-40-13z"/>
</svg>