<?xml version="1.0" encoding="UTF-8"?>
<svg xmlns="http://www.w3.org/2000/svg">
<!-- Header -->
    <symbol id="home" viewBox="0 0 24 24">
        <path d="M4 21V9L12 3L20 9V21H14V14H10V21ZM6 19H8V12H16V19H18V10L12 5.5L6 10ZM12 12.25Z"/>
    </symbol>
    <symbol id="sun" viewBox="0 0 24 24">
        <path d="M12 15Q13.25 15 14.125 14.125Q15 13.25 15 12Q15 10.75 14.125 9.875Q13.25 9 12 9Q10.75 9 9.875 9.875Q9 10.75 9 12Q9 13.25 9.875 14.125Q10.75 15 12 15ZM12 17Q9.925 17 8.463 15.537Q7 14.075 7 12Q7 9.925 8.463 8.462Q9.925 7 12 7Q14.075 7 15.538 8.462Q17 9.925 17 12Q17 14.075 15.538 15.537Q14.075 17 12 17ZM1 13V11H5V13ZM19 13V11H23V13ZM11 5V1H13V5ZM11 23V19H13V23ZM6.35 7.75 3.875 5.275 5.275 3.875 7.75 6.35ZM18.725 20.125 16.25 17.65 17.65 16.25 20.125 18.725ZM17.65 7.75 16.25 6.35 18.725 3.875 20.125 5.275ZM5.275 20.125 3.875 18.725 6.35 16.25 7.75 17.65ZM12 12Q12 12 12 12Q12 12 12 12Q12 12 12 12Q12 12 12 12Q12 12 12 12Q12 12 12 12Q12 12 12 12Q12 12 12 12Z"/>
    </symbol>
    <symbol id="moon" viewBox="0 0 24 24">
        <path d="M12 21Q8.25 21 5.625 18.375Q3 15.75 3 12Q3 8.25 5.625 5.625Q8.25 3 12 3Q12.35 3 12.688 3.025Q13.025 3.05 13.35 3.1Q12.325 3.825 11.713 4.987Q11.1 6.15 11.1 7.5Q11.1 9.75 12.675 11.325Q14.25 12.9 16.5 12.9Q17.875 12.9 19.025 12.287Q20.175 11.675 20.9 10.65Q20.95 10.975 20.975 11.312Q21 11.65 21 12Q21 15.75 18.375 18.375Q15.75 21 12 21ZM12 19Q14.2 19 15.95 17.788Q17.7 16.575 18.5 14.625Q18 14.75 17.5 14.825Q17 14.9 16.5 14.9Q13.425 14.9 11.262 12.738Q9.1 10.575 9.1 7.5Q9.1 7 9.175 6.5Q9.25 6 9.375 5.5Q7.425 6.3 6.213 8.05Q5 9.8 5 12Q5 14.9 7.05 16.95Q9.1 19 12 19ZM11.75 12.25Q11.75 12.25 11.75 12.25Q11.75 12.25 11.75 12.25Q11.75 12.25 11.75 12.25Q11.75 12.25 11.75 12.25Q11.75 12.25 11.75 12.25Q11.75 12.25 11.75 12.25Q11.75 12.25 11.75 12.25Q11.75 12.25 11.75 12.25Q11.75 12.25 11.75 12.25Q11.75 12.25 11.75 12.25Q11.75 12.25 11.75 12.25Q11.75 12.25 11.75 12.25Z"/>
    </symbol>
    <symbol id="moon-auto" viewBox="0 0 24 24">
        <path d="M11 19q1.35 0 2.513-.538 1.162-.537 1.987-1.487-3.15-.2-5.325-2.488Q8 12.2 8 9q0-.325.025-.638.025-.312.075-.612-1.4.775-2.25 2.162Q5 11.3 5 13q0 2.5 1.75 4.25T11 19Zm0 2q-3.35 0-5.675-2.325Q3 16.35 3 13q0-3.35 2.325-5.675Q7.65 5 11 5q.125 0 .25.012.125.013.25.013-.725.8-1.113 1.812Q10 7.85 10 9q0 2.5 1.75 4.25T16 15q.8 0 1.525-.2.725-.2 1.375-.55-.45 2.875-2.662 4.812Q14.025 21 11 21Zm2.8-10L17 2h2l3.2 9h-1.9l-.7-2h-3.2l-.7 2Zm3.05-3.35h2.3L18 4Z"/>
    </symbol>
    <symbol id="menu" viewBox="0 0 24 24">
        <path d="M3 18V16H21V18ZM3 13V11H21V13ZM3 8V6H21V8Z"/>
    </symbol>
    <symbol id="close-menu" viewBox="0 0 24 24">
        <path d="M6.4 19 5 17.6 10.6 12 5 6.4 6.4 5 12 10.6 17.6 5 19 6.4 13.4 12 19 17.6 17.6 19 12 13.4Z"/>
    </symbol>
<!-- HomePage -->
    <symbol id="right-arrow" viewBox="0 0 24 24">
		<path d="M12 20 10.575 18.6 16.175 13H4V11H16.175L10.575 5.4L12 4L20 12Z"/>
    </symbol>
<!-- Social -->
    <symbol id="linkedin" viewBox="0 0 448 512">
        <path d="M100 448H7V149h93zM54 108C24 108 0 84 0 54a54 54 0 0 1 108 0c0 29-25 54-54 54zm394 340h-93V302c0-34 0-79-48-79s-56 38-56 77v148h-93V149h90v41h1c12-24 43-49 88-49 94 0 111 62 111 143v164z"/>
    </symbol>
    <symbol id="github" viewBox="0 0 496 512">
        <path d="M165.9 397.4c0 2-2.3 3.6-5.2 3.6-3.3.3-5.6-1.3-5.6-3.6 0-2 2.3-3.6 5.2-3.6 3-.3 5.6 1.3 5.6 3.6zm-31.1-4.5c-.7 2 1.3 4.3 4.3 4.9 2.6 1 5.6 0 6.2-2s-1.3-4.3-4.3-5.2c-2.6-.7-5.5.3-6.2 2.3zm44.2-1.7c-2.9.7-4.9 2.6-4.6 4.9.3 2 2.9 3.3 5.9 2.6 2.9-.7 4.9-2.6 4.6-4.6-.3-1.9-3-3.2-5.9-2.9zM244.8 8C106.1 8 0 113.3 0 252a250.7 250.7 0 0 0 169.5 239.2c12.8 2.3 17.3-5.6 17.3-12.1 0-6.2-.3-40.4-.3-61.4 0 0-70 15-84.7-29.8 0 0-11.4-29.1-27.8-36.6 0 0-22.9-15.7 1.6-15.4 0 0 24.9 2 38.6 25.8 21.9 38.6 58.6 27.5 72.9 20.9 2.3-16 8.8-27.1 16-33.7-55.9-6.2-112.3-14.3-112.3-110.5 0-27.5 7.6-41.3 23.6-58.9a94.5 94.5 0 0 1 2.6-67.9c20.9-6.5 69 27 69 27a235 235 0 0 1 125.6 0s48.1-33.6 69-27a94.4 94.4 0 0 1 2.6 67.9c16 17.7 25.8 31.5 25.8 58.9 0 96.5-58.9 104.2-114.8 110.5 9.2 7.9 17 22.9 17 46.4 0 33.7-.3 75.4-.3 83.6 0 6.5 4.6 14.4 17.3 12.1C428.2 457.8 496 362.9 496 252 496 113.3 383.5 8 244.8 8zM97.2 352.9c-1.3 1-1 3.3.7 5.2 1.6 1.6 3.9 2.3 5.2 1 1.3-1 1-3.3-.7-5.2-1.6-1.6-3.9-2.3-5.2-1zm-10.8-8.1c-.7 1.3.3 2.9 2.3 3.9 1.6 1 3.6.7 4.3-.7.7-1.3-.3-2.9-2.3-3.9-2-.6-3.6-.3-4.3.7zm32.4 35.6c-1.6 1.3-1 4.3 1.3 6.2 2.3 2.3 5.2 2.6 6.5 1 1.3-1.3.7-4.3-1.3-6.2-2.2-2.3-5.2-2.6-6.5-1zm-11.4-14.7c-1.6 1-1.6 3.6 0 5.9 1.6 2.3 4.3 3.3 5.6 2.3 1.6-1.3 1.6-3.9 0-6.2-1.4-2.3-4-3.3-5.6-2z"/>
    </symbol>
    <symbol id="gitlab" viewBox="0 0 512 512">
        <path d="m510.5 284.5-27.3-84v.1-.1L429.1 33.9a21.3 21.3 0 0 0-20.4-14.6A21 21 0 0 0 388.5 34L337 192.2H175L123.5 34a21 21 0 0 0-20.2-14.7A21.5 21.5 0 0 0 82.8 34l-54 166.5v.1L1.5 284.4a30.6 30.6 0 0 0 11.1 34.3L249 490.4h.1l.3.3-.3-.2h.1a12 12 0 0 0 1.2.8h.1l.1.1c.1 0 0 0 0 0h.1l.2.1.6.3.6.2h.1l.2.1h.2v.1l.9.2.3.1h.5a12 12 0 0 0 1.8.2 12 12 0 0 0 1.7-.1h.4l.1-.1h.4l.8-.3H259.7l.1-.1c0-.1.1 0 .1 0l.7-.3.6-.3H261.5v-.1l.2-.1a12.3 12.3 0 0 0 1.2-.7v-.1h.2l236.3-171.7a30.6 30.6 0 0 0 11-34.3Zm-101.7-235 46.3 142.7h-92.6Zm-305.6 0 46.4 142.7H57ZM26.8 299.3a6.5 6.5 0 0 1-2.3-7.4l20.3-62.4 149 191.1Zm38.3-83h92.4l65.9 203ZM248.5 490l-.2-.1a8.4 8.4 0 0 1-.8-.7h.1a12.2 12.2 0 0 0 1.1 1h.1l-.3-.2Zm7.5-48.5-38.8-119.4-34.4-106h146.5Zm8 48.1-.3.3-.2.1-.3.2a11.7 11.7 0 0 0 1.1-1h.1l-.5.4Zm90.6-273.4H447l-18.9 24.2-139.5 178.7Zm130.6 83-167 121.3 149-191 20.3 62.3a6.5 6.5 0 0 1-2.3 7.3Z"/>
    </symbol>
<!-- Skills -->
    <symbol id="sass-scss" viewBox="0 0 640 512">
        <path d="M301.8 379c-.3.5-.6 1 0 0zM551 292a131.2 131.2 0 0 0-58 13.4c-6-11.9-12-22.3-13-30-1.2-9.2-2.5-14.6-1.1-25.4s7.7-26 7.6-27.2-1.4-6.6-14.3-6.7-24 2.5-25.3 6a122.8 122.8 0 0 0-5.3 19c-2.3 11.7-25.8 53.5-39.1 75.3-4.4-8.5-8.1-16-9-22-1.1-9-2.4-14.5-1-25.3s7.7-26 7.6-27.2-1.4-6.6-14.3-6.7-24 2.5-25.3 6-2.7 11.3-5.3 19-33.9 77.3-42 95.4c-4.3 9.2-7.9 16.6-10.5 21.6l-.9 1.7c.3-.5.5-1 .5-.8l-3.5 6.7v.1c-1.7 3.2-3.6 6.1-4.5 6.1-.6 0-1.9-8.4.3-19.9 4.7-24.2 15.8-61.8 15.7-63 0-.8 2.1-7.3-7.3-10.8-9-3.3-12.4 2.2-13.2 2.2s-1.4 2-1.4 2 10.1-42.4-19.4-42.4c-18.4 0-44 20.2-56.5 38.5l-43 23.5-20.7 11.4-1.4-1.5c-35.8-38.2-102-65.2-99.1-116.5 1-18.7 7.5-67.8 127-127.4 98-48.8 176.4-35.4 189.9-5.6 19.4 42.5-41.9 121.6-143.7 133-38.8 4.3-59.1-10.7-64.2-16.3-5.3-5.9-6.1-6.2-8.1-5-3.3 1.7-1.2 7 0 10 3 8 15.5 22 36.7 29 18.7 6 64.2 9.4 119.2-11.9C367 196.5 415 130.3 401 74.7 386.5 18.3 293-.2 204.6 31.2 151.9 50 94.9 79.3 53.9 117.6 5.2 163.2-2.6 203 .6 219.6c11.4 58.8 92.6 97.2 125 125.6-1.5 1-3 1.7-4.4 2.5-16.3 8.1-78.2 40.5-93.7 74.7-17.5 38.8 3 66.6 16.3 70.4 41.8 11.6 84.6-9.3 107.6-43.6s20.2-79 9.6-99.5l-.4-.8a1451.2 1451.2 0 0 1 36.3-20.8c-4 10.8-7 23.8-8.4 42.6-1.8 22 7.3 50.5 19 61.7a21 21 0 0 0 15.5 5c13.8 0 20-11.4 26.8-25 8.5-16.6 16-35.9 16-35.9s-9.4 52.2 16.3 52.2c9.4 0 18.8-12 23-18.3v.1l.7-1.2 1.5-2.4v-.3a935.8 935.8 0 0 0 56.3-117.5 201.2 201.2 0 0 0 6.2 25.8c2.8 9.5 8.7 20 13.4 30l-6 8.2a.3.3 0 0 0 0 .2c-3 4-6.4 8.3-9.9 12.5-12.8 15.2-28 32.6-30 37.6-2.4 6-1.8 10.3 2.8 13.7 3.4 2.6 9.4 3 15.7 2.5a69.3 69.3 0 0 0 23.5-5.4 82.2 82.2 0 0 0 20.2-10.6 45.1 45.1 0 0 0 19.4-39.8 82.8 82.8 0 0 0-7.3-28.2l3.4-5c19.8-28.9 35.1-60.6 35.1-60.6a201.2 201.2 0 0 0 6.2 25.8c2.4 8.1 7 17 11.4 25.7a110 110 0 0 0-34.1 44.1c-7.4 21.3-1.6 30.9 9.3 33.1 4.9 1 11.9-1.3 17.1-3.5a79.5 79.5 0 0 0 21.6-11.1c12.5-9.2 24.6-22.1 23.8-39.6a74.4 74.4 0 0 0-5.4-23.4 122 122 0 0 1 62-7.2c55.8 6.5 66.7 41.3 64.6 55.8s-13.8 22.6-17.7 25-5.1 3.3-4.8 5.1c.5 2.6 2.3 2.5 5.6 1.9 4.6-.8 29.1-11.8 30.2-38.7 1.6-34-31-71.4-89-71.1zM121.8 436.5c-18.4 20.1-44.2 27.7-55.3 21.3C54.6 451 59.3 421.4 82 400c13.8-13 31.6-25 43.4-32.4l11.4-6.9 1.2-.7 2.9-1.7c8.3 30.4.3 57.2-19.1 78.3zm134.4-91.4c-6.4 15.7-20 55.7-28.1 53.6-7-1.8-11.3-32.3-1.4-62.3a138 138 0 0 1 21.9-40c10-11.4 21.2-15 23.8-10.5 3.5 6-12.2 49.4-16.2 59.2zm111 53c-2.7 1.4-5.2 2.3-6.4 1.6-1-.5 1-2.4 1-2.4s14-14.9 19.5-21.7c3.2-4 6.9-8.7 10.8-13.9l.1 1.6c0 18-17.3 30-25 34.8zm85.5-19.5c-2-1.4-1.7-6 5-20.7a77.7 77.7 0 0 1 19-24.5 36.2 36.2 0 0 1 2 10.8c-.2 22.5-16.3 31-26 34.4z"/>
    </symbol>
    <symbol id="javascript" viewBox="0 0 448 512">
        <path d="M0 32v448h448V32H0zm243.8 349.4c0 43.6-25.6 63.5-62.9 63.5-33.7 0-53.2-17.4-63.2-38.5l34.3-20.7c6.6 11.7 12.6 21.6 27.1 21.6 13.8 0 22.6-5.4 22.6-26.5V237.7h42.1v143.7zm99.6 63.5c-39.1 0-64.4-18.6-76.7-43l34.3-19.8c9 14.7 20.8 25.6 41.5 25.6 17.4 0 28.6-8.7 28.6-20.8 0-14.4-11.4-19.5-30.7-28l-10.5-4.5c-30.4-12.9-50.5-29.2-50.5-63.5 0-31.6 24.1-55.6 61.6-55.6 26.8 0 46 9.3 59.8 33.7L368 290c-7.2-12.9-15-18-27.1-18-12.3 0-20.1 7.8-20.1 18 0 12.6 7.8 17.7 25.9 25.6l10.5 4.5c35.8 15.3 55.9 31 55.9 66.2 0 37.8-29.8 58.6-69.7 58.6z"/>
    </symbol>
    <symbol id="php" viewBox="0 0 640 512">
        <path d="M320 104.5c171.4 0 303.2 72.2 303.2 151.5S491.3 407.5 320 407.5c-171.4 0-303.2-72.2-303.2-151.5S148.7 104.5 320 104.5m0-16.8C143.3 87.7 0 163 0 256s143.3 168.3 320 168.3S640 349 640 256 496.7 87.7 320 87.7zM218.2 242.5c-7.9 40.5-35.8 36.3-70.1 36.3l13.7-70.6c38 0 63.8-4.1 56.4 34.3zM97.4 350.3h36.7l8.7-44.8c41.1 0 66.6 3 90.2-19.1 26.1-24 32.9-66.7 14.3-88.1-9.7-11.2-25.3-16.7-46.5-16.7h-70.7L97.4 350.3zm185.7-213.6h36.5l-8.7 44.8c31.5 0 60.7-2.3 74.8 10.7 14.8 13.6 7.7 31-8.3 113.1h-37c15.4-79.4 18.3-86 12.7-92-5.4-5.8-17.7-4.6-47.4-4.6l-18.8 96.6h-36.5l32.7-168.6zM505 242.5c-8 41.1-36.7 36.3-70.1 36.3l13.7-70.6c38.2 0 63.8-4.1 56.4 34.3zM384.2 350.3H421l8.7-44.8c43.2 0 67.1 2.5 90.2-19.1 26.1-24 32.9-66.7 14.3-88.1-9.7-11.2-25.3-16.7-46.5-16.7H417l-32.8 168.7z"/>
    </symbol>
    <symbol id="git" viewBox="0 0 448 512">
        <path d="M439.6 236 244 40.5a28.9 28.9 0 0 0-40.8 0l-40.7 40.7 51.6 51.5a34.3 34.3 0 0 1 43.3 43.7l49.7 49.6c34.2-11.8 61.2 31 35.5 56.7-26.5 26.5-70.2-2.8-56-37.3L240.2 199v121.8c25.3 12.6 22.3 41.9 9.1 55a34.3 34.3 0 0 1-48.5 0 34.3 34.3 0 0 1 11.2-56v-123a34.3 34.3 0 0 1-18.6-45L142.6 101 8.4 235.1a28.9 28.9 0 0 0 0 40.8l195.7 195.7a28.9 28.9 0 0 0 40.8 0l194.7-194.7a28.9 28.9 0 0 0 0-40.9z"/>
    </symbol>
    <symbol id="docker" viewBox="0 0 640 512">
        <path d="M349.9 236.3h-66.1v-59.4h66.1v59.4zm0-204.3h-66.1v60.7h66.1V32zm78.2 144.8H362v59.4h66.1v-59.4zm-156.3-72.1h-66.1v60.1h66.1v-60.1zm78.1 0h-66.1v60.1h66.1v-60.1zm276.8 100c-14.4-9.7-47.6-13.2-73.1-8.4-3.3-24-16.7-44.9-41.1-63.7l-14-9.3-9.3 14c-18.4 27.8-23.4 73.6-3.7 103.8a100.6 100.6 0 0 1-48.4 10.7H2.4a210 210 0 0 0 44 162.1c37.1 43.9 92.7 66.2 165.4 66.2 157.4 0 273.9-72.5 328.4-204.2 21.4.4 67.6.1 91.3-45.2 1.5-2.5 6.6-13.2 8.5-17.1l-13.3-8.9zm-511.1-27.9h-66v59.4h66.1v-59.4zm78.1 0h-66.1v59.4h66.1v-59.4zm78.1 0h-66.1v59.4h66.1v-59.4zm-78.1-72.1h-66.1v60.1h66.1v-60.1z"/>
    </symbol>
    <symbol id="linux" viewBox="0 0 448 512">
        <path d="M220.8 123.3c1 .5 1.8 1.7 3 1.7 1.1 0 2.8-.4 2.9-1.5.2-1.4-1.9-2.3-3.2-2.9-1.7-.7-3.9-1-5.5-.1-.4.2-.8.7-.6 1.1.3 1.3 2.3 1.1 3.4 1.7zm-21.9 1.7c1.2 0 2-1.2 3-1.7 1.1-.6 3.1-.4 3.5-1.6.2-.4-.2-.9-.6-1.1-1.6-.9-3.8-.6-5.5.1-1.3.6-3.4 1.5-3.2 2.9.1 1 1.8 1.5 2.8 1.4zM420 403.8c-3.6-4-5.3-11.6-7.2-19.7-1.8-8.1-3.9-16.8-10.5-22.4a27 27 0 0 0-8.1-4.9c9.2-27.3 5.6-54.5-3.7-79.1-11.4-30.1-31.3-56.4-46.5-74.4-17.1-21.5-33.7-41.9-33.4-72C311.1 85.4 315.7.1 234.8 0 132.4-.2 158 103.4 156.9 135.2a116 116 0 0 1-22.5 64.7c-18.9 22.5-45.5 58.8-58.1 96.7a115 115 0 0 0-6.2 53.3c-6.5 5.8-11.4 14.7-16.6 20.2-4.2 4.3-10.3 5.9-17 8.3s-14 6-18.5 14.5a25.6 25.6 0 0 0-2.8 12.4c0 3.9.6 7.9 1.2 11.8 1.2 8.1 2.5 15.7.8 20.8-5.2 14.4-5.9 24.4-2.2 31.7 3.8 7.3 11.4 10.5 20.1 12.3 17.3 3.6 40.8 2.7 59.3 12.5 19.8 10.4 39.9 14.1 55.9 10.4a36.2 36.2 0 0 0 25.9-20.2c12.5-.1 26.3-5.4 48.3-6.6 14.9-1.2 33.6 5.3 55.1 4.1.6 2.3 1.4 4.6 2.5 6.7v.1a40.1 40.1 0 0 0 40.3 23c16.6-1.3 34.1-11 48.3-27.9 13.6-16.4 36-23.2 50.9-32.2 7.4-4.5 13.4-10.1 13.9-18.3.4-8.2-4.4-17.3-15.5-29.7zM223.7 87.3c9.8-22.2 34.2-21.8 44-.4a39.8 39.8 0 0 1-4.3 40.4c-1.6-.8-5.9-2.6-12.6-4.9 1.1-1.2 3.1-2.7 3.9-4.6 4.8-11.8-.2-27-9.1-27.3-7.3-.5-13.9 10.8-11.8 23-4.1-2-9.4-3.5-13-4.4-1-6.9-.3-14.6 2.9-21.8zM183 75.8c10.1 0 20.8 14.2 19.1 33.5a36 36 0 0 0-10.2 4.6c1.2-8.9-3.3-20.1-9.6-19.6-8.4.7-9.8 21.2-1.8 28.1 1 .8 1.9-.2-5.9 5.5-15.6-14.6-10.5-52.1 8.4-52.1zm-13.6 60.7c6.2-4.6 13.6-10 14.1-10.5 4.7-4.4 13.5-14.2 27.9-14.2 7.1 0 15.6 2.3 25.9 8.9 6.3 4.1 11.3 4.4 22.6 9.3 8.4 3.5 13.7 9.7 10.5 18.2-2.6 7.1-11 14.4-22.7 18.1-11.1 3.6-19.8 16-38.2 14.9-3.9-.2-7-1-9.6-2.1-8-3.5-12.2-10.4-20-15-8.6-4.8-13.2-10.4-14.7-15.3-1.4-4.9 0-9 4.2-12.3zm3.3 334c-2.7 35.1-43.9 34.4-75.3 18-29.9-15.8-68.6-6.5-76.5-21.9-2.4-4.7-2.4-12.7 2.6-26.4v-.2c2.4-7.6.6-16-.6-23.9-1.2-7.8-1.8-15 .9-20 3.5-6.7 8.5-9.1 14.8-11.3 10.3-3.7 11.8-3.4 19.6-9.9 5.5-5.7 9.5-12.9 14.3-18 5.1-5.5 10-8.1 17.7-6.9 8.1 1.2 15.1 6.8 21.9 16l19.6 35.6c9.5 19.9 43.1 48.4 41 68.9zm-1.4-25.9c-4.1-6.6-9.6-13.6-14.4-19.6 7.1 0 14.2-2.2 16.7-8.9 2.3-6.2 0-14.9-7.4-24.9-13.5-18.2-38.3-32.5-38.3-32.5-13.5-8.4-21.1-18.7-24.6-29.9s-3-23.3-.3-35.2c5.2-22.9 18.6-45.2 27.2-59.2 2.3-1.7.8 3.2-8.7 20.8-8.5 16.1-24.4 53.3-2.6 82.4.6-20.7 5.5-41.8 13.8-61.5 12-27.4 37.3-74.9 39.3-112.7 1.1.8 4.6 3.2 6.2 4.1 4.6 2.7 8.1 6.7 12.6 10.3 12.4 10 28.5 9.2 42.4 1.2 6.2-3.5 11.2-7.5 15.9-9a42.7 42.7 0 0 0 22.3-15 516.5 516.5 0 0 0 37.2 95.7 225 225 0 0 1 23.6 64.6c3.3-.1 7 .4 10.9 1.4 13.8-35.7-11.7-74.2-23.3-84.9-4.7-4.6-4.9-6.6-2.6-6.5a123.4 123.4 0 0 1 35.2 59 75.6 75.6 0 0 1 .4 35.7c16.4 6.8 35.9 17.9 30.7 34.8h-4.2c3.2-10.1-3.9-17.6-22.8-26.1-19.6-8.6-36-8.6-38.3 12.5-12.1 4.2-18.3 14.7-21.4 27.3a220.7 220.7 0 0 0-4.4 39.9c-.5 7.7-3.6 18-6.8 29-32.1 22.9-76.7 32.9-114.3 7.2zm257.4-11.5c-.9 16.8-41.2 19.9-63.2 46.5-13.2 15.7-29.4 24.4-43.6 25.5s-26.5-4.8-33.7-19.3c-4.7-11.1-2.4-23.1 1.1-36.3 3.7-14.2 9.2-28.8 9.9-40.6a225 225 0 0 1 4.2-38.7c2.6-10.3 6.6-17.2 13.7-21.1l1-.5c.8 13.2 7.3 26.6 18.8 29.5 12.6 3.3 30.7-7.5 38.4-16.3 9-.3 15.7-.9 22.6 5.1 9.9 8.5 7.1 30.3 17.1 41.6 10.6 11.6 14 19.5 13.7 24.6zM173.3 148.7c2 1.9 4.7 4.5 8 7.1a44.2 44.2 0 0 0 27.3 10.6c11.6 0 22.5-5.9 31.8-10.8 4.9-2.6 10.9-7 14.8-10.4s5.9-6.3 3.1-6.6-2.6 2.6-6 5.1c-4.4 3.2-9.7 7.4-13.9 9.8-7.4 4.2-19.5 10.2-29.9 10.2s-18.7-4.8-24.9-9.7c-3.1-2.5-5.7-5-7.7-6.9-1.5-1.4-1.9-4.6-4.3-4.9-1.4-.1-1.8 3.7 1.7 6.5z"/>
    </symbol>    
<!-- Footer -->
    <symbol id="copyright" viewBox="0 0 24 24">
        <path d="M10 16H14Q14.425 16 14.713 15.712Q15 15.425 15 15V13H13V14H11V10H13V11H15V9Q15 8.575 14.713 8.287Q14.425 8 14 8H10Q9.575 8 9.288 8.287Q9 8.575 9 9V15Q9 15.425 9.288 15.712Q9.575 16 10 16ZM12 22Q9.925 22 8.1 21.212Q6.275 20.425 4.925 19.075Q3.575 17.725 2.788 15.9Q2 14.075 2 12Q2 9.925 2.788 8.1Q3.575 6.275 4.925 4.925Q6.275 3.575 8.1 2.787Q9.925 2 12 2Q14.075 2 15.9 2.787Q17.725 3.575 19.075 4.925Q20.425 6.275 21.212 8.1Q22 9.925 22 12Q22 14.075 21.212 15.9Q20.425 17.725 19.075 19.075Q17.725 20.425 15.9 21.212Q14.075 22 12 22ZM12 12Q12 12 12 12Q12 12 12 12Q12 12 12 12Q12 12 12 12Q12 12 12 12Q12 12 12 12Q12 12 12 12Q12 12 12 12ZM12 20Q15.325 20 17.663 17.663Q20 15.325 20 12Q20 8.675 17.663 6.337Q15.325 4 12 4Q8.675 4 6.338 6.337Q4 8.675 4 12Q4 15.325 6.338 17.663Q8.675 20 12 20Z"/>
    </symbol>
    <symbol id="love" viewBox="0 0 24 24">
        <path d="M12 21 10.55 19.7Q6.625 16.2 4.312 13.612Q2 11.025 2 8.15Q2 5.8 3.575 4.225Q5.15 2.65 7.5 2.65Q8.825 2.65 10 3.212Q11.175 3.775 12 4.75Q12.825 3.775 14 3.212Q15.175 2.65 16.5 2.65Q18.85 2.65 20.425 4.225Q22 5.8 22 8.15Q22 11.025 19.688 13.612Q17.375 16.2 13.45 19.7Z"/>
    </symbol>
</svg>