<?xml version="1.0" encoding="UTF-8"?>
<!-- Before inserting any SVG icon into this file, please ensure that you can optimize the code using https://jakearchibald.github.io/svgomg/ -->
<svg xmlns="http://www.w3.org/2000/svg">
<!-- Header -->
    <!-- The header icons used in this SVG file have been sourced from: https://github.com/google/material-design-icons / https://fonts.google.com/icons -->
    <!-- Licence: https://github.com/google/material-design-icons/blob/master/LICENSE -->
    <!-- Use only icons in /tree/master/symbols/web/{ELEMENT}/materialsymbolssharp/{ELEMENT}_24px.svg -->
    <symbol id="home" viewBox="0 0 24 24">
        <path d="M4 21V9L12 3L20 9V21H14V14H10V21ZM6 19H8V12H16V19H18V10L12 5.5L6 10ZM12 12.25Z"/>
    </symbol>
    <symbol id="sun" viewBox="0 0 24 24">
        <path d="M12 15Q13.25 15 14.125 14.125Q15 13.25 15 12Q15 10.75 14.125 9.875Q13.25 9 12 9Q10.75 9 9.875 9.875Q9 10.75 9 12Q9 13.25 9.875 14.125Q10.75 15 12 15ZM12 17Q9.925 17 8.463 15.537Q7 14.075 7 12Q7 9.925 8.463 8.462Q9.925 7 12 7Q14.075 7 15.538 8.462Q17 9.925 17 12Q17 14.075 15.538 15.537Q14.075 17 12 17ZM1 13V11H5V13ZM19 13V11H23V13ZM11 5V1H13V5ZM11 23V19H13V23ZM6.35 7.75 3.875 5.275 5.275 3.875 7.75 6.35ZM18.725 20.125 16.25 17.65 17.65 16.25 20.125 18.725ZM17.65 7.75 16.25 6.35 18.725 3.875 20.125 5.275ZM5.275 20.125 3.875 18.725 6.35 16.25 7.75 17.65ZM12 12Q12 12 12 12Q12 12 12 12Q12 12 12 12Q12 12 12 12Q12 12 12 12Q12 12 12 12Q12 12 12 12Q12 12 12 12Z"/>
    </symbol>
    <symbol id="moon" viewBox="0 0 24 24">
        <path d="M12 21Q8.25 21 5.625 18.375Q3 15.75 3 12Q3 8.25 5.625 5.625Q8.25 3 12 3Q12.35 3 12.688 3.025Q13.025 3.05 13.35 3.1Q12.325 3.825 11.713 4.987Q11.1 6.15 11.1 7.5Q11.1 9.75 12.675 11.325Q14.25 12.9 16.5 12.9Q17.875 12.9 19.025 12.287Q20.175 11.675 20.9 10.65Q20.95 10.975 20.975 11.312Q21 11.65 21 12Q21 15.75 18.375 18.375Q15.75 21 12 21ZM12 19Q14.2 19 15.95 17.788Q17.7 16.575 18.5 14.625Q18 14.75 17.5 14.825Q17 14.9 16.5 14.9Q13.425 14.9 11.262 12.738Q9.1 10.575 9.1 7.5Q9.1 7 9.175 6.5Q9.25 6 9.375 5.5Q7.425 6.3 6.213 8.05Q5 9.8 5 12Q5 14.9 7.05 16.95Q9.1 19 12 19ZM11.75 12.25Q11.75 12.25 11.75 12.25Q11.75 12.25 11.75 12.25Q11.75 12.25 11.75 12.25Q11.75 12.25 11.75 12.25Q11.75 12.25 11.75 12.25Q11.75 12.25 11.75 12.25Q11.75 12.25 11.75 12.25Q11.75 12.25 11.75 12.25Q11.75 12.25 11.75 12.25Q11.75 12.25 11.75 12.25Q11.75 12.25 11.75 12.25Q11.75 12.25 11.75 12.25Z"/>
    </symbol>
    <symbol id="moon-auto" viewBox="0 0 24 24">
        <path d="M11 19q1.35 0 2.513-.538 1.162-.537 1.987-1.487-3.15-.2-5.325-2.488Q8 12.2 8 9q0-.325.025-.638.025-.312.075-.612-1.4.775-2.25 2.162Q5 11.3 5 13q0 2.5 1.75 4.25T11 19Zm0 2q-3.35 0-5.675-2.325Q3 16.35 3 13q0-3.35 2.325-5.675Q7.65 5 11 5q.125 0 .25.012.125.013.25.013-.725.8-1.113 1.812Q10 7.85 10 9q0 2.5 1.75 4.25T16 15q.8 0 1.525-.2.725-.2 1.375-.55-.45 2.875-2.662 4.812Q14.025 21 11 21Zm2.8-10L17 2h2l3.2 9h-1.9l-.7-2h-3.2l-.7 2Zm3.05-3.35h2.3L18 4Z"/>
    </symbol>
    <symbol id="menu" viewBox="0 0 24 24">
        <path d="M3 18V16H21V18ZM3 13V11H21V13ZM3 8V6H21V8Z"/>
    </symbol>
    <symbol id="close-menu" viewBox="0 0 24 24">
        <path d="M6.4 19 5 17.6 10.6 12 5 6.4 6.4 5 12 10.6 17.6 5 19 6.4 13.4 12 19 17.6 17.6 19 12 13.4Z"/>
    </symbol>
<!-- HomePage -->
    <!-- The homepage icons used in this SVG file have been sourced from: https://github.com/google/material-design-icons / https://fonts.google.com/icons -->
    <!-- Licence: https://github.com/google/material-design-icons/blob/master/LICENSE -->
    <!-- Use only icons in /tree/master/symbols/web/{ELEMENT}/materialsymbolssharp/{ELEMENT}_24px.svg -->
    <symbol id="right-arrow" viewBox="0 0 24 24">
		<path d="M12 20 10.575 18.6 16.175 13H4V11H16.175L10.575 5.4L12 4L20 12Z"/>
    </symbol>
<!-- Social -->
    <!-- The social network icons used in this SVG file have been sourced from: https://github.com/simple-icons/simple-icons / https://simpleicons.org -->
    <!-- Licence: https://github.com/simple-icons/simple-icons/blob/develop/LICENSE.md -->
    <symbol id="linkedin" viewBox="0 0 24 24">
        <path d="M20.447 20.452h-3.554v-5.569c0-1.328-.027-3.037-1.852-3.037-1.853 0-2.136 1.445-2.136 2.939v5.667H9.351V9h3.414v1.561h.046c.477-.9 1.637-1.85 3.37-1.85 3.601 0 4.267 2.37 4.267 5.455v6.286zM5.337 7.433c-1.144 0-2.063-.926-2.063-2.065 0-1.138.92-2.063 2.063-2.063 1.14 0 2.064.925 2.064 2.063 0 1.139-.925 2.065-2.064 2.065zm1.782 13.019H3.555V9h3.564v11.452zM22.225 0H1.771C.792 0 0 .774 0 1.729v20.542C0 23.227.792 24 1.771 24h20.451C23.2 24 24 23.227 24 22.271V1.729C24 .774 23.2 0 22.222 0h.003z"/>
    </symbol>
    <symbol id="github" viewBox="0 0 24 24">
        <path d="M12 .297c-6.63 0-12 5.373-12 12 0 5.303 3.438 9.8 8.205 11.385.6.113.82-.258.82-.577 0-.285-.01-1.04-.015-2.04-3.338.724-4.042-1.61-4.042-1.61C4.422 18.07 3.633 17.7 3.633 17.7c-1.087-.744.084-.729.084-.729 1.205.084 1.838 1.236 1.838 1.236 1.07 1.835 2.809 1.305 3.495.998.108-.776.417-1.305.76-1.605-2.665-.3-5.466-1.332-5.466-5.93 0-1.31.465-2.38 1.235-3.22-.135-.303-.54-1.523.105-3.176 0 0 1.005-.322 3.3 1.23.96-.267 1.98-.399 3-.405 1.02.006 2.04.138 3 .405 2.28-1.552 3.285-1.23 3.285-1.23.645 1.653.24 2.873.12 3.176.765.84 1.23 1.91 1.23 3.22 0 4.61-2.805 5.625-5.475 5.92.42.36.81 1.096.81 2.22 0 1.606-.015 2.896-.015 3.286 0 .315.21.69.825.57C20.565 22.092 24 17.592 24 12.297c0-6.627-5.373-12-12-12"/>
    </symbol>
    <symbol id="gitlab" viewBox="0 0 24 24">
        <path d="m23.6004 9.5927-.0337-.0862L20.3.9814a.851.851 0 0 0-.3362-.405.8748.8748 0 0 0-.9997.0539.8748.8748 0 0 0-.29.4399l-2.2055 6.748H7.5375l-2.2057-6.748a.8573.8573 0 0 0-.29-.4412.8748.8748 0 0 0-.9997-.0537.8585.8585 0 0 0-.3362.4049L.4332 9.5015l-.0325.0862a6.0657 6.0657 0 0 0 2.0119 7.0105l.0113.0087.03.0213 4.976 3.7264 2.462 1.8633 1.4995 1.1321a1.0085 1.0085 0 0 0 1.2197 0l1.4995-1.1321 2.4619-1.8633 5.006-3.7489.0125-.01a6.0682 6.0682 0 0 0 2.0094-7.003z"/>
    </symbol>
<!-- Skills -->
    <!-- The skills icons used in this SVG file have been sourced from: https://github.com/simple-icons/simple-icons / https://simpleicons.org -->
    <!-- Licence: https://github.com/simple-icons/simple-icons/blob/develop/LICENSE.md -->
    <symbol id="sass-scss" viewBox="0 0 24 24">
        <path d="M12 0c6.627 0 12 5.373 12 12s-5.373 12-12 12S0 18.627 0 12 5.373 0 12 0zM9.615 15.998c.175.645.156 1.248-.024 1.792l-.065.18c-.024.061-.052.12-.078.176-.14.29-.326.56-.555.81-.698.759-1.672 1.047-2.09.805-.45-.262-.226-1.335.584-2.19.871-.918 2.12-1.509 2.12-1.509v-.003l.108-.061zm9.911-10.861c-.542-2.133-4.077-2.834-7.422-1.645-1.989.707-4.144 1.818-5.693 3.267C4.568 8.48 4.275 9.98 4.396 10.607c.427 2.211 3.457 3.657 4.703 4.73v.006c-.367.18-3.056 1.529-3.686 2.925-.675 1.47.105 2.521.615 2.655 1.575.436 3.195-.36 4.065-1.649.84-1.261.766-2.881.404-3.676.496-.135 1.08-.195 1.83-.104 2.101.24 2.521 1.56 2.43 2.1-.09.539-.523.854-.674.944-.15.091-.195.12-.181.181.015.09.091.09.21.075.165-.03 1.096-.45 1.141-1.471.045-1.29-1.186-2.729-3.375-2.7-.9.016-1.471.091-1.875.256-.03-.045-.061-.075-.105-.105-1.35-1.455-3.855-2.475-3.75-4.41.03-.705.285-2.564 4.8-4.814 3.705-1.846 6.661-1.335 7.171-.21.733 1.604-1.576 4.59-5.431 5.024-1.47.165-2.235-.404-2.431-.615-.209-.225-.239-.24-.314-.194-.12.06-.045.255 0 .375.12.3.585.825 1.396 1.095.704.225 2.43.359 4.5-.45 2.324-.899 4.139-3.405 3.614-5.505l.073.067z"/>
    </symbol>
    <symbol id="typescript" viewBox="0 0 24 24">
        <path d="M1.125 0C.502 0 0 .502 0 1.125v21.75C0 23.498.502 24 1.125 24h21.75c.623 0 1.125-.502 1.125-1.125V1.125C24 .502 23.498 0 22.875 0zm17.363 9.75c.612 0 1.154.037 1.627.111a6.38 6.38 0 0 1 1.306.34v2.458a3.95 3.95 0 0 0-.643-.361 5.093 5.093 0 0 0-.717-.26 5.453 5.453 0 0 0-1.426-.2c-.3 0-.573.028-.819.086a2.1 2.1 0 0 0-.623.242c-.17.104-.3.229-.393.374a.888.888 0 0 0-.14.49c0 .196.053.373.156.529.104.156.252.304.443.444s.423.276.696.41c.273.135.582.274.926.416.47.197.892.407 1.266.628.374.222.695.473.963.753.268.279.472.598.614.957.142.359.214.776.214 1.253 0 .657-.125 1.21-.373 1.656a3.033 3.033 0 0 1-1.012 1.085 4.38 4.38 0 0 1-1.487.596c-.566.12-1.163.18-1.79.18a9.916 9.916 0 0 1-1.84-.164 5.544 5.544 0 0 1-1.512-.493v-2.63a5.033 5.033 0 0 0 3.237 1.2c.333 0 .624-.03.872-.09.249-.06.456-.144.623-.25.166-.108.29-.234.373-.38a1.023 1.023 0 0 0-.074-1.089 2.12 2.12 0 0 0-.537-.5 5.597 5.597 0 0 0-.807-.444 27.72 27.72 0 0 0-1.007-.436c-.918-.383-1.602-.852-2.053-1.405-.45-.553-.676-1.222-.676-2.005 0-.614.123-1.141.369-1.582.246-.441.58-.804 1.004-1.089a4.494 4.494 0 0 1 1.47-.629 7.536 7.536 0 0 1 1.77-.201zm-15.113.188h9.563v2.166H9.506v9.646H6.789v-9.646H3.375z"/>
    </symbol>
    <symbol id="php" viewBox="0 0 24 24">
        <path d="M7.01 10.207h-.944l-.515 2.648h.838c.556 0 .97-.105 1.242-.314.272-.21.455-.559.55-1.049.092-.47.05-.802-.124-.995-.175-.193-.523-.29-1.047-.29zM12 5.688C5.373 5.688 0 8.514 0 12s5.373 6.313 12 6.313S24 15.486 24 12c0-3.486-5.373-6.312-12-6.312zm-3.26 7.451c-.261.25-.575.438-.917.551-.336.108-.765.164-1.285.164H5.357l-.327 1.681H3.652l1.23-6.326h2.65c.797 0 1.378.209 1.744.628.366.418.476 1.002.33 1.752a2.836 2.836 0 0 1-.305.847c-.143.255-.33.49-.561.703zm4.024.715l.543-2.799c.063-.318.039-.536-.068-.651-.107-.116-.336-.174-.687-.174H11.46l-.704 3.625H9.388l1.23-6.327h1.367l-.327 1.682h1.218c.767 0 1.295.134 1.586.401s.378.7.263 1.299l-.572 2.944h-1.389zm7.597-2.265a2.782 2.782 0 0 1-.305.847c-.143.255-.33.49-.561.703a2.44 2.44 0 0 1-.917.551c-.336.108-.765.164-1.286.164h-1.18l-.327 1.682h-1.378l1.23-6.326h2.649c.797 0 1.378.209 1.744.628.366.417.477 1.001.331 1.751zM17.766 10.207h-.943l-.516 2.648h.838c.557 0 .971-.105 1.242-.314.272-.21.455-.559.551-1.049.092-.47.049-.802-.125-.995s-.524-.29-1.047-.29z"/>
    </symbol>
    <symbol id="git" viewBox="0 0 24 24">
        <path d="M23.546 10.93L13.067.452c-.604-.603-1.582-.603-2.188 0L8.708 2.627l2.76 2.76c.645-.215 1.379-.07 1.889.441.516.515.658 1.258.438 1.9l2.658 2.66c.645-.223 1.387-.078 1.9.435.721.72.721 1.884 0 2.604-.719.719-1.881.719-2.6 0-.539-.541-.674-1.337-.404-1.996L12.86 8.955v6.525c.176.086.342.203.488.348.713.721.713 1.883 0 2.6-.719.721-1.889.721-2.609 0-.719-.719-.719-1.879 0-2.598.182-.18.387-.316.605-.406V8.835c-.217-.091-.424-.222-.6-.401-.545-.545-.676-1.342-.396-2.009L7.636 3.7.45 10.881c-.6.605-.6 1.584 0 2.189l10.48 10.477c.604.604 1.582.604 2.186 0l10.43-10.43c.605-.603.605-1.582 0-2.187"/>
    </symbol>
    <symbol id="docker" viewBox="0 0 24 24">
        <path d="M13.983 11.078h2.119a.186.186 0 00.186-.185V9.006a.186.186 0 00-.186-.186h-2.119a.185.185 0 00-.185.185v1.888c0 .102.083.185.185.185m-2.954-5.43h2.118a.186.186 0 00.186-.186V3.574a.186.186 0 00-.186-.185h-2.118a.185.185 0 00-.185.185v1.888c0 .102.082.185.185.185m0 2.716h2.118a.187.187 0 00.186-.186V6.29a.186.186 0 00-.186-.185h-2.118a.185.185 0 00-.185.185v1.887c0 .102.082.185.185.186m-2.93 0h2.12a.186.186 0 00.184-.186V6.29a.185.185 0 00-.185-.185H8.1a.185.185 0 00-.185.185v1.887c0 .102.083.185.185.186m-2.964 0h2.119a.186.186 0 00.185-.186V6.29a.185.185 0 00-.185-.185H5.136a.186.186 0 00-.186.185v1.887c0 .102.084.185.186.186m5.893 2.715h2.118a.186.186 0 00.186-.185V9.006a.186.186 0 00-.186-.186h-2.118a.185.185 0 00-.185.185v1.888c0 .102.082.185.185.185m-2.93 0h2.12a.185.185 0 00.184-.185V9.006a.185.185 0 00-.184-.186h-2.12a.185.185 0 00-.184.185v1.888c0 .102.083.185.185.185m-2.964 0h2.119a.185.185 0 00.185-.185V9.006a.185.185 0 00-.184-.186h-2.12a.186.186 0 00-.186.186v1.887c0 .102.084.185.186.185m-2.92 0h2.12a.185.185 0 00.184-.185V9.006a.185.185 0 00-.184-.186h-2.12a.185.185 0 00-.184.185v1.888c0 .102.082.185.185.185M23.763 9.89c-.065-.051-.672-.51-1.954-.51-.338.001-.676.03-1.01.087-.248-1.7-1.653-2.53-1.716-2.566l-.344-.199-.226.327c-.284.438-.49.922-.612 1.43-.23.97-.09 1.882.403 2.661-.595.332-1.55.413-1.744.42H.751a.751.751 0 00-.75.748 11.376 11.376 0 00.692 4.062c.545 1.428 1.355 2.48 2.41 3.124 1.18.723 3.1 1.137 5.275 1.137.983.003 1.963-.086 2.93-.266a12.248 12.248 0 003.823-1.389c.98-.567 1.86-1.288 2.61-2.136 1.252-1.418 1.998-2.997 2.553-4.4h.221c1.372 0 2.215-.549 2.68-1.009.309-.293.55-.65.707-1.046l.098-.288Z"/>
    </symbol>
    <symbol id="linux" viewBox="0 0 24 24">
        <path d="M12.504 0c-.155 0-.315.008-.48.021-4.226.333-3.105 4.807-3.17 6.298-.076 1.092-.3 1.953-1.05 3.02-.885 1.051-2.127 2.75-2.716 4.521-.278.832-.41 1.684-.287 2.489a.424.424 0 00-.11.135c-.26.268-.45.6-.663.839-.199.199-.485.267-.797.4-.313.136-.658.269-.864.68-.09.189-.136.394-.132.602 0 .199.027.4.055.536.058.399.116.728.04.97-.249.68-.28 1.145-.106 1.484.174.334.535.47.94.601.81.2 1.91.135 2.774.6.926.466 1.866.67 2.616.47.526-.116.97-.464 1.208-.946.587-.003 1.23-.269 2.26-.334.699-.058 1.574.267 2.577.2.025.134.063.198.114.333l.003.003c.391.778 1.113 1.132 1.884 1.071.771-.06 1.592-.536 2.257-1.306.631-.765 1.683-1.084 2.378-1.503.348-.199.629-.469.649-.853.023-.4-.2-.811-.714-1.376v-.097l-.003-.003c-.17-.2-.25-.535-.338-.926-.085-.401-.182-.786-.492-1.046h-.003c-.059-.054-.123-.067-.188-.135a.357.357 0 00-.19-.064c.431-1.278.264-2.55-.173-3.694-.533-1.41-1.465-2.638-2.175-3.483-.796-1.005-1.576-1.957-1.56-3.368.026-2.152.236-6.133-3.544-6.139zm.529 3.405h.013c.213 0 .396.062.584.198.19.135.33.332.438.533.105.259.158.459.166.724 0-.02.006-.04.006-.06v.105a.086.086 0 01-.004-.021l-.004-.024a1.807 1.807 0 01-.15.706.953.953 0 01-.213.335.71.71 0 00-.088-.042c-.104-.045-.198-.064-.284-.133a1.312 1.312 0 00-.22-.066c.05-.06.146-.133.183-.198.053-.128.082-.264.088-.402v-.02a1.21 1.21 0 00-.061-.4c-.045-.134-.101-.2-.183-.333-.084-.066-.167-.132-.267-.132h-.016c-.093 0-.176.03-.262.132a.8.8 0 00-.205.334 1.18 1.18 0 00-.09.4v.019c.002.089.008.179.02.267-.193-.067-.438-.135-.607-.202a1.635 1.635 0 01-.018-.2v-.02a1.772 1.772 0 01.15-.768c.082-.22.232-.406.43-.533a.985.985 0 01.594-.2zm-2.962.059h.036c.142 0 .27.048.399.135.146.129.264.288.344.465.09.199.14.4.153.667v.004c.007.134.006.2-.002.266v.08c-.03.007-.056.018-.083.024-.152.055-.274.135-.393.2.012-.09.013-.18.003-.267v-.015c-.012-.133-.04-.2-.082-.333a.613.613 0 00-.166-.267.248.248 0 00-.183-.064h-.021c-.071.006-.13.04-.186.132a.552.552 0 00-.12.27.944.944 0 00-.023.33v.015c.012.135.037.2.08.334.046.134.098.2.166.268.01.009.02.018.034.024-.07.057-.117.07-.176.136a.304.304 0 01-.131.068 2.62 2.62 0 01-.275-.402 1.772 1.772 0 01-.155-.667 1.759 1.759 0 01.08-.668 1.43 1.43 0 01.283-.535c.128-.133.26-.2.418-.2zm1.37 1.706c.332 0 .733.065 1.216.399.293.2.523.269 1.052.468h.003c.255.136.405.266.478.399v-.131a.571.571 0 01.016.47c-.123.31-.516.643-1.063.842v.002c-.268.135-.501.333-.775.465-.276.135-.588.292-1.012.267a1.139 1.139 0 01-.448-.067 3.566 3.566 0 01-.322-.198c-.195-.135-.363-.332-.612-.465v-.005h-.005c-.4-.246-.616-.512-.686-.71-.07-.268-.005-.47.193-.6.224-.135.38-.271.483-.336.104-.074.143-.102.176-.131h.002v-.003c.169-.202.436-.47.839-.601.139-.036.294-.065.466-.065zm2.8 2.142c.358 1.417 1.196 3.475 1.735 4.473.286.534.855 1.659 1.102 3.024.156-.005.33.018.513.064.646-1.671-.546-3.467-1.089-3.966-.22-.2-.232-.335-.123-.335.59.534 1.365 1.572 1.646 2.757.13.535.16 1.104.021 1.67.067.028.135.06.205.067 1.032.534 1.413.938 1.23 1.537v-.043c-.06-.003-.12 0-.18 0h-.016c.151-.467-.182-.825-1.065-1.224-.915-.4-1.646-.336-1.77.465-.008.043-.013.066-.018.135-.068.023-.139.053-.209.064-.43.268-.662.669-.793 1.187-.13.533-.17 1.156-.205 1.869v.003c-.02.334-.17.838-.319 1.35-1.5 1.072-3.58 1.538-5.348.334a2.645 2.645 0 00-.402-.533 1.45 1.45 0 00-.275-.333c.182 0 .338-.03.465-.067a.615.615 0 00.314-.334c.108-.267 0-.697-.345-1.163-.345-.467-.931-.995-1.788-1.521-.63-.4-.986-.87-1.15-1.396-.165-.534-.143-1.085-.015-1.645.245-1.07.873-2.11 1.274-2.763.107-.065.037.135-.408.974-.396.751-1.14 2.497-.122 3.854a8.123 8.123 0 01.647-2.876c.564-1.278 1.743-3.504 1.836-5.268.048.036.217.135.289.202.218.133.38.333.59.465.21.201.477.335.876.335.039.003.075.006.11.006.412 0 .73-.134.997-.268.29-.134.52-.334.74-.4h.005c.467-.135.835-.402 1.044-.7zm2.185 8.958c.037.6.343 1.245.882 1.377.588.134 1.434-.333 1.791-.765l.211-.01c.315-.007.577.01.847.268l.003.003c.208.199.305.53.391.876.085.4.154.78.409 1.066.486.527.645.906.636 1.14l.003-.007v.018l-.003-.012c-.015.262-.185.396-.498.595-.63.401-1.746.712-2.457 1.57-.618.737-1.37 1.14-2.036 1.191-.664.053-1.237-.2-1.574-.898l-.005-.003c-.21-.4-.12-1.025.056-1.69.176-.668.428-1.344.463-1.897.037-.714.076-1.335.195-1.814.12-.465.308-.797.641-.984l.045-.022zm-10.814.049h.01c.053 0 .105.005.157.014.376.055.706.333 1.023.752l.91 1.664.003.003c.243.533.754 1.064 1.189 1.637.434.598.77 1.131.729 1.57v.006c-.057.744-.48 1.148-1.125 1.294-.645.135-1.52.002-2.395-.464-.968-.536-2.118-.469-2.857-.602-.369-.066-.61-.2-.723-.4-.11-.2-.113-.602.123-1.23v-.004l.002-.003c.117-.334.03-.752-.027-1.118-.055-.401-.083-.71.043-.94.16-.334.396-.4.69-.533.294-.135.64-.202.915-.47h.002v-.002c.256-.268.445-.601.668-.838.19-.201.38-.336.663-.336zm7.159-9.074c-.435.201-.945.535-1.488.535-.542 0-.97-.267-1.28-.466-.154-.134-.28-.268-.373-.335-.164-.134-.144-.333-.074-.333.109.016.129.134.199.2.096.066.215.2.36.333.292.2.68.467 1.167.467.485 0 1.053-.267 1.398-.466.195-.135.445-.334.648-.467.156-.136.149-.267.279-.267.128.016.034.134-.147.332a8.097 8.097 0 01-.69.468zm-1.082-1.583V5.64c-.006-.02.013-.042.029-.05.074-.043.18-.027.26.004.063 0 .16.067.15.135-.006.049-.085.066-.135.066-.055 0-.092-.043-.141-.068-.052-.018-.146-.008-.163-.065zm-.551 0c-.02.058-.113.049-.166.066-.047.025-.086.068-.14.068-.05 0-.13-.02-.136-.068-.01-.066.088-.133.15-.133.08-.031.184-.047.259-.005.019.009.036.03.03.05v.02h.003z"/>
    </symbol>
<!-- Footer -->
    <!-- The footer icons used in this SVG file have been sourced from: https://github.com/google/material-design-icons / https://fonts.google.com/icons -->
    <!-- Licence: https://github.com/google/material-design-icons/blob/master/LICENSE -->
    <!-- Use only icons in /tree/master/symbols/web/{ELEMENT}/materialsymbolssharp/{ELEMENT}_24px.svg -->
    <symbol id="copyright" viewBox="0 0 24 24">
        <path d="M10 16H14Q14.425 16 14.713 15.712Q15 15.425 15 15V13H13V14H11V10H13V11H15V9Q15 8.575 14.713 8.287Q14.425 8 14 8H10Q9.575 8 9.288 8.287Q9 8.575 9 9V15Q9 15.425 9.288 15.712Q9.575 16 10 16ZM12 22Q9.925 22 8.1 21.212Q6.275 20.425 4.925 19.075Q3.575 17.725 2.788 15.9Q2 14.075 2 12Q2 9.925 2.788 8.1Q3.575 6.275 4.925 4.925Q6.275 3.575 8.1 2.787Q9.925 2 12 2Q14.075 2 15.9 2.787Q17.725 3.575 19.075 4.925Q20.425 6.275 21.212 8.1Q22 9.925 22 12Q22 14.075 21.212 15.9Q20.425 17.725 19.075 19.075Q17.725 20.425 15.9 21.212Q14.075 22 12 22ZM12 12Q12 12 12 12Q12 12 12 12Q12 12 12 12Q12 12 12 12Q12 12 12 12Q12 12 12 12Q12 12 12 12Q12 12 12 12ZM12 20Q15.325 20 17.663 17.663Q20 15.325 20 12Q20 8.675 17.663 6.337Q15.325 4 12 4Q8.675 4 6.338 6.337Q4 8.675 4 12Q4 15.325 6.338 17.663Q8.675 20 12 20Z"/>
    </symbol>
    <symbol id="love" viewBox="0 0 24 24">
        <path d="M12 21 10.55 19.7Q6.625 16.2 4.312 13.612Q2 11.025 2 8.15Q2 5.8 3.575 4.225Q5.15 2.65 7.5 2.65Q8.825 2.65 10 3.212Q11.175 3.775 12 4.75Q12.825 3.775 14 3.212Q15.175 2.65 16.5 2.65Q18.85 2.65 20.425 4.225Q22 5.8 22 8.15Q22 11.025 19.688 13.612Q17.375 16.2 13.45 19.7Z"/>
    </symbol>
</svg>
