<?xml version="1.0" encoding="UTF-8"?>
<!-- Before inserting any SVG icon into this file, please ensure that you can optimize the code using https://jakearchibald.github.io/svgomg/ -->
<svg xmlns="http://www.w3.org/2000/svg">
<!-- Header -->
    <!-- The header icons used in this SVG file have been sourced from: https://github.com/google/material-design-icons / https://fonts.google.com/icons -->
    <!-- Licence: https://github.com/google/material-design-icons/blob/master/LICENSE -->
    <!-- Use only icons in /tree/master/symbols/web/{ELEMENT}/materialsymbolssharp/{ELEMENT}_24px.svg -->
    <symbol id="sun" viewBox="0 0 24 24">
        <path d="M12 15Q13.25 15 14.125 14.125Q15 13.25 15 12Q15 10.75 14.125 9.875Q13.25 9 12 9Q10.75 9 9.875 9.875Q9 10.75 9 12Q9 13.25 9.875 14.125Q10.75 15 12 15ZM12 17Q9.925 17 8.463 15.537Q7 14.075 7 12Q7 9.925 8.463 8.462Q9.925 7 12 7Q14.075 7 15.538 8.462Q17 9.925 17 12Q17 14.075 15.538 15.537Q14.075 17 12 17ZM1 13V11H5V13ZM19 13V11H23V13ZM11 5V1H13V5ZM11 23V19H13V23ZM6.35 7.75 3.875 5.275 5.275 3.875 7.75 6.35ZM18.725 20.125 16.25 17.65 17.65 16.25 20.125 18.725ZM17.65 7.75 16.25 6.35 18.725 3.875 20.125 5.275ZM5.275 20.125 3.875 18.725 6.35 16.25 7.75 17.65ZM12 12Q12 12 12 12Q12 12 12 12Q12 12 12 12Q12 12 12 12Q12 12 12 12Q12 12 12 12Q12 12 12 12Q12 12 12 12Z"/>
    </symbol>
    <symbol id="moon" viewBox="0 0 24 24">
        <path d="M12 21Q8.25 21 5.625 18.375Q3 15.75 3 12Q3 8.25 5.625 5.625Q8.25 3 12 3Q12.35 3 12.688 3.025Q13.025 3.05 13.35 3.1Q12.325 3.825 11.713 4.987Q11.1 6.15 11.1 7.5Q11.1 9.75 12.675 11.325Q14.25 12.9 16.5 12.9Q17.875 12.9 19.025 12.287Q20.175 11.675 20.9 10.65Q20.95 10.975 20.975 11.312Q21 11.65 21 12Q21 15.75 18.375 18.375Q15.75 21 12 21ZM12 19Q14.2 19 15.95 17.788Q17.7 16.575 18.5 14.625Q18 14.75 17.5 14.825Q17 14.9 16.5 14.9Q13.425 14.9 11.262 12.738Q9.1 10.575 9.1 7.5Q9.1 7 9.175 6.5Q9.25 6 9.375 5.5Q7.425 6.3 6.213 8.05Q5 9.8 5 12Q5 14.9 7.05 16.95Q9.1 19 12 19ZM11.75 12.25Q11.75 12.25 11.75 12.25Q11.75 12.25 11.75 12.25Q11.75 12.25 11.75 12.25Q11.75 12.25 11.75 12.25Q11.75 12.25 11.75 12.25Q11.75 12.25 11.75 12.25Q11.75 12.25 11.75 12.25Q11.75 12.25 11.75 12.25Q11.75 12.25 11.75 12.25Q11.75 12.25 11.75 12.25Q11.75 12.25 11.75 12.25Q11.75 12.25 11.75 12.25Z"/>
    </symbol>
    <symbol id="moon-auto" viewBox="0 0 24 24">
        <path d="M11 19q1.35 0 2.513-.538 1.162-.537 1.987-1.487-3.15-.2-5.325-2.488Q8 12.2 8 9q0-.325.025-.638.025-.312.075-.612-1.4.775-2.25 2.162Q5 11.3 5 13q0 2.5 1.75 4.25T11 19Zm0 2q-3.35 0-5.675-2.325Q3 16.35 3 13q0-3.35 2.325-5.675Q7.65 5 11 5q.125 0 .25.012.125.013.25.013-.725.8-1.113 1.812Q10 7.85 10 9q0 2.5 1.75 4.25T16 15q.8 0 1.525-.2.725-.2 1.375-.55-.45 2.875-2.662 4.812Q14.025 21 11 21Zm2.8-10L17 2h2l3.2 9h-1.9l-.7-2h-3.2l-.7 2Zm3.05-3.35h2.3L18 4Z"/>
    </symbol>
<!-- Social -->
    <!-- The social network icons used in this SVG file have been sourced from: https://github.com/simple-icons/simple-icons / https://simpleicons.org -->
    <!-- Licence: https://github.com/simple-icons/simple-icons/blob/develop/LICENSE.md -->
    <symbol id="linkedin" viewBox="0 0 24 24">
        <path d="M20.447 20.452h-3.554v-5.569c0-1.328-.027-3.037-1.852-3.037-1.853 0-2.136 1.445-2.136 2.939v5.667H9.351V9h3.414v1.561h.046c.477-.9 1.637-1.85 3.37-1.85 3.601 0 4.267 2.37 4.267 5.455v6.286zM5.337 7.433c-1.144 0-2.063-.926-2.063-2.065 0-1.138.92-2.063 2.063-2.063 1.14 0 2.064.925 2.064 2.063 0 1.139-.925 2.065-2.064 2.065zm1.782 13.019H3.555V9h3.564v11.452zM22.225 0H1.771C.792 0 0 .774 0 1.729v20.542C0 23.227.792 24 1.771 24h20.451C23.2 24 24 23.227 24 22.271V1.729C24 .774 23.2 0 22.222 0h.003z"/>
    </symbol>
    <symbol id="github" viewBox="0 0 24 24">
        <path d="M12 .297c-6.63 0-12 5.373-12 12 0 5.303 3.438 9.8 8.205 11.385.6.113.82-.258.82-.577 0-.285-.01-1.04-.015-2.04-3.338.724-4.042-1.61-4.042-1.61C4.422 18.07 3.633 17.7 3.633 17.7c-1.087-.744.084-.729.084-.729 1.205.084 1.838 1.236 1.838 1.236 1.07 1.835 2.809 1.305 3.495.998.108-.776.417-1.305.76-1.605-2.665-.3-5.466-1.332-5.466-5.93 0-1.31.465-2.38 1.235-3.22-.135-.303-.54-1.523.105-3.176 0 0 1.005-.322 3.3 1.23.96-.267 1.98-.399 3-.405 1.02.006 2.04.138 3 .405 2.28-1.552 3.285-1.23 3.285-1.23.645 1.653.24 2.873.12 3.176.765.84 1.23 1.91 1.23 3.22 0 4.61-2.805 5.625-5.475 5.92.42.36.81 1.096.81 2.22 0 1.606-.015 2.896-.015 3.286 0 .315.21.69.825.57C20.565 22.092 24 17.592 24 12.297c0-6.627-5.373-12-12-12"/>
    </symbol>
    <symbol id="gitlab" viewBox="0 0 24 24">
        <path d="m23.6004 9.5927-.0337-.0862L20.3.9814a.851.851 0 0 0-.3362-.405.8748.8748 0 0 0-.9997.0539.8748.8748 0 0 0-.29.4399l-2.2055 6.748H7.5375l-2.2057-6.748a.8573.8573 0 0 0-.29-.4412.8748.8748 0 0 0-.9997-.0537.8585.8585 0 0 0-.3362.4049L.4332 9.5015l-.0325.0862a6.0657 6.0657 0 0 0 2.0119 7.0105l.0113.0087.03.0213 4.976 3.7264 2.462 1.8633 1.4995 1.1321a1.0085 1.0085 0 0 0 1.2197 0l1.4995-1.1321 2.4619-1.8633 5.006-3.7489.0125-.01a6.0682 6.0682 0 0 0 2.0094-7.003z"/>
    </symbol>
    <symbol id="twitter" viewBox="0 0 24 24">
        <path d="M21.543 7.104c.015.211.015.423.015.636 0 6.507-4.954 14.01-14.01 14.01v-.003A13.94 13.94 0 0 1 0 19.539a9.88 9.88 0 0 0 7.287-2.041 4.93 4.93 0 0 1-4.6-3.42 4.916 4.916 0 0 0 2.223-.084A4.926 4.926 0 0 1 .96 9.167v-.062a4.887 4.887 0 0 0 2.235.616A4.928 4.928 0 0 1 1.67 3.148 13.98 13.98 0 0 0 11.82 8.292a4.929 4.929 0 0 1 8.39-4.49 9.868 9.868 0 0 0 3.128-1.196 4.941 4.941 0 0 1-2.165 2.724A9.828 9.828 0 0 0 24 4.555a10.019 10.019 0 0 1-2.457 2.549z"/>
    </symbol>
    <symbol id="mastodon" viewBox="0 0 24 24">
        <path d="M23.268 5.313c-.35-2.578-2.617-4.61-5.304-5.004C17.51.242 15.792 0 11.813 0h-.03c-3.98 0-4.835.242-5.288.309C3.882.692 1.496 2.518.917 5.127.64 6.412.61 7.837.661 9.143c.074 1.874.088 3.745.26 5.611.118 1.24.325 2.47.62 3.68.55 2.237 2.777 4.098 4.96 4.857 2.336.792 4.849.923 7.256.38.265-.061.527-.132.786-.213.585-.184 1.27-.39 1.774-.753a.057.057 0 0 0 .023-.043v-1.809a.052.052 0 0 0-.02-.041.053.053 0 0 0-.046-.01 20.282 20.282 0 0 1-4.709.545c-2.73 0-3.463-1.284-3.674-1.818a5.593 5.593 0 0 1-.319-1.433.053.053 0 0 1 .066-.054c1.517.363 3.072.546 4.632.546.376 0 .75 0 1.125-.01 1.57-.044 3.224-.124 4.768-.422.038-.008.077-.015.11-.024 2.435-.464 4.753-1.92 4.989-5.604.008-.145.03-1.52.03-1.67.002-.512.167-3.63-.024-5.545zm-3.748 9.195h-2.561V8.29c0-1.309-.55-1.976-1.67-1.976-1.23 0-1.846.79-1.846 2.35v3.403h-2.546V8.663c0-1.56-.617-2.35-1.848-2.35-1.112 0-1.668.668-1.67 1.977v6.218H4.822V8.102c0-1.31.337-2.35 1.011-3.12.696-.77 1.608-1.164 2.74-1.164 1.311 0 2.302.5 2.962 1.498l.638 1.06.638-1.06c.66-.999 1.65-1.498 2.96-1.498 1.13 0 2.043.395 2.74 1.164.675.77 1.012 1.81 1.012 3.12z"/>
    </symbol>
    <symbol id="reddit" viewBox="0 0 24 24">
        <path d="M12 0A12 12 0 0 0 0 12a12 12 0 0 0 12 12 12 12 0 0 0 12-12A12 12 0 0 0 12 0zm5.01 4.744c.688 0 1.25.561 1.25 1.249a1.25 1.25 0 0 1-2.498.056l-2.597-.547-.8 3.747c1.824.07 3.48.632 4.674 1.488.308-.309.73-.491 1.207-.491.968 0 1.754.786 1.754 1.754 0 .716-.435 1.333-1.01 1.614a3.111 3.111 0 0 1 .042.52c0 2.694-3.13 4.87-7.004 4.87-3.874 0-7.004-2.176-7.004-4.87 0-.183.015-.366.043-.534A1.748 1.748 0 0 1 4.028 12c0-.968.786-1.754 1.754-1.754.463 0 .898.196 1.207.49 1.207-.883 2.878-1.43 4.744-1.487l.885-4.182a.342.342 0 0 1 .14-.197.35.35 0 0 1 .238-.042l2.906.617a1.214 1.214 0 0 1 1.108-.701zM9.25 12C8.561 12 8 12.562 8 13.25c0 .687.561 1.248 1.25 1.248.687 0 1.248-.561 1.248-1.249 0-.688-.561-1.249-1.249-1.249zm5.5 0c-.687 0-1.248.561-1.248 1.25 0 .687.561 1.248 1.249 1.248.688 0 1.249-.561 1.249-1.249 0-.687-.562-1.249-1.25-1.249zm-5.466 3.99a.327.327 0 0 0-.231.094.33.33 0 0 0 0 .463c.842.842 2.484.913 2.961.913.477 0 2.105-.056 2.961-.913a.361.361 0 0 0 .029-.463.33.33 0 0 0-.464 0c-.547.533-1.684.73-2.512.73-.828 0-1.979-.196-2.512-.73a.326.326 0 0 0-.232-.095z"/>
    </symbol>
    <symbol id="instagram" viewBox="0 0 24 24">
        <path d="M12 0C8.74 0 8.333.015 7.053.072 5.775.132 4.905.333 4.14.63c-.789.306-1.459.717-2.126 1.384S.935 3.35.63 4.14C.333 4.905.131 5.775.072 7.053.012 8.333 0 8.74 0 12s.015 3.667.072 4.947c.06 1.277.261 2.148.558 2.913.306.788.717 1.459 1.384 2.126.667.666 1.336 1.079 2.126 1.384.766.296 1.636.499 2.913.558C8.333 23.988 8.74 24 12 24s3.667-.015 4.947-.072c1.277-.06 2.148-.262 2.913-.558.788-.306 1.459-.718 2.126-1.384.666-.667 1.079-1.335 1.384-2.126.296-.765.499-1.636.558-2.913.06-1.28.072-1.687.072-4.947s-.015-3.667-.072-4.947c-.06-1.277-.262-2.149-.558-2.913-.306-.789-.718-1.459-1.384-2.126C21.319 1.347 20.651.935 19.86.63c-.765-.297-1.636-.499-2.913-.558C15.667.012 15.26 0 12 0zm0 2.16c3.203 0 3.585.016 4.85.071 1.17.055 1.805.249 2.227.415.562.217.96.477 1.382.896.419.42.679.819.896 1.381.164.422.36 1.057.413 2.227.057 1.266.07 1.646.07 4.85s-.015 3.585-.074 4.85c-.061 1.17-.256 1.805-.421 2.227-.224.562-.479.96-.899 1.382-.419.419-.824.679-1.38.896-.42.164-1.065.36-2.235.413-1.274.057-1.649.07-4.859.07-3.211 0-3.586-.015-4.859-.074-1.171-.061-1.816-.256-2.236-.421-.569-.224-.96-.479-1.379-.899-.421-.419-.69-.824-.9-1.38-.165-.42-.359-1.065-.42-2.235-.045-1.26-.061-1.649-.061-4.844 0-3.196.016-3.586.061-4.861.061-1.17.255-1.814.42-2.234.21-.57.479-.96.9-1.381.419-.419.81-.689 1.379-.898.42-.166 1.051-.361 2.221-.421 1.275-.045 1.65-.06 4.859-.06l.045.03zm0 3.678c-3.405 0-6.162 2.76-6.162 6.162 0 3.405 2.76 6.162 6.162 6.162 3.405 0 6.162-2.76 6.162-6.162 0-3.405-2.76-6.162-6.162-6.162zM12 16c-2.21 0-4-1.79-4-4s1.79-4 4-4 4 1.79 4 4-1.79 4-4 4zm7.846-10.405c0 .795-.646 1.44-1.44 1.44-.795 0-1.44-.646-1.44-1.44 0-.794.646-1.439 1.44-1.439.793-.001 1.44.645 1.44 1.439z"/>
    </symbol>
<!-- Footer -->
    <!-- The footer icons used in this SVG file have been sourced from: https://github.com/google/material-design-icons / https://fonts.google.com/icons -->
    <!-- Licence: https://github.com/google/material-design-icons/blob/master/LICENSE -->
    <!-- Use only icons in /tree/master/symbols/web/{ELEMENT}/materialsymbolssharp/{ELEMENT}_24px.svg -->
    <symbol id="copyright" viewBox="0 0 24 24">
        <path d="M10 16H14Q14.425 16 14.713 15.712Q15 15.425 15 15V13H13V14H11V10H13V11H15V9Q15 8.575 14.713 8.287Q14.425 8 14 8H10Q9.575 8 9.288 8.287Q9 8.575 9 9V15Q9 15.425 9.288 15.712Q9.575 16 10 16ZM12 22Q9.925 22 8.1 21.212Q6.275 20.425 4.925 19.075Q3.575 17.725 2.788 15.9Q2 14.075 2 12Q2 9.925 2.788 8.1Q3.575 6.275 4.925 4.925Q6.275 3.575 8.1 2.787Q9.925 2 12 2Q14.075 2 15.9 2.787Q17.725 3.575 19.075 4.925Q20.425 6.275 21.212 8.1Q22 9.925 22 12Q22 14.075 21.212 15.9Q20.425 17.725 19.075 19.075Q17.725 20.425 15.9 21.212Q14.075 22 12 22ZM12 12Q12 12 12 12Q12 12 12 12Q12 12 12 12Q12 12 12 12Q12 12 12 12Q12 12 12 12Q12 12 12 12Q12 12 12 12ZM12 20Q15.325 20 17.663 17.663Q20 15.325 20 12Q20 8.675 17.663 6.337Q15.325 4 12 4Q8.675 4 6.338 6.337Q4 8.675 4 12Q4 15.325 6.338 17.663Q8.675 20 12 20Z"/>    </symbol>
    <symbol id="love" viewBox="0 0 24 24">
        <path d="M12 21 10.55 19.7Q6.625 16.2 4.312 13.612Q2 11.025 2 8.15Q2 5.8 3.575 4.225Q5.15 2.65 7.5 2.65Q8.825 2.65 10 3.212Q11.175 3.775 12 4.75Q12.825 3.775 14 3.212Q15.175 2.65 16.5 2.65Q18.85 2.65 20.425 4.225Q22 5.8 22 8.15Q22 11.025 19.688 13.612Q17.375 16.2 13.45 19.7Z"/>
    </symbol>
</svg>