<?xml version="1.0" encoding="UTF-8"?>
<svg xmlns="http://www.w3.org/2000/svg">
<!-- Header -->
    <symbol id="sun" viewBox="0 0 24 24">
        <path d="M12 15Q13.25 15 14.125 14.125Q15 13.25 15 12Q15 10.75 14.125 9.875Q13.25 9 12 9Q10.75 9 9.875 9.875Q9 10.75 9 12Q9 13.25 9.875 14.125Q10.75 15 12 15ZM12 17Q9.925 17 8.463 15.537Q7 14.075 7 12Q7 9.925 8.463 8.462Q9.925 7 12 7Q14.075 7 15.538 8.462Q17 9.925 17 12Q17 14.075 15.538 15.537Q14.075 17 12 17ZM1 13V11H5V13ZM19 13V11H23V13ZM11 5V1H13V5ZM11 23V19H13V23ZM6.35 7.75 3.875 5.275 5.275 3.875 7.75 6.35ZM18.725 20.125 16.25 17.65 17.65 16.25 20.125 18.725ZM17.65 7.75 16.25 6.35 18.725 3.875 20.125 5.275ZM5.275 20.125 3.875 18.725 6.35 16.25 7.75 17.65ZM12 12Q12 12 12 12Q12 12 12 12Q12 12 12 12Q12 12 12 12Q12 12 12 12Q12 12 12 12Q12 12 12 12Q12 12 12 12Z"/>
    </symbol>
    <symbol id="moon" viewBox="0 0 24 24">
        <path d="M12 21Q8.25 21 5.625 18.375Q3 15.75 3 12Q3 8.25 5.625 5.625Q8.25 3 12 3Q12.35 3 12.688 3.025Q13.025 3.05 13.35 3.1Q12.325 3.825 11.713 4.987Q11.1 6.15 11.1 7.5Q11.1 9.75 12.675 11.325Q14.25 12.9 16.5 12.9Q17.875 12.9 19.025 12.287Q20.175 11.675 20.9 10.65Q20.95 10.975 20.975 11.312Q21 11.65 21 12Q21 15.75 18.375 18.375Q15.75 21 12 21ZM12 19Q14.2 19 15.95 17.788Q17.7 16.575 18.5 14.625Q18 14.75 17.5 14.825Q17 14.9 16.5 14.9Q13.425 14.9 11.262 12.738Q9.1 10.575 9.1 7.5Q9.1 7 9.175 6.5Q9.25 6 9.375 5.5Q7.425 6.3 6.213 8.05Q5 9.8 5 12Q5 14.9 7.05 16.95Q9.1 19 12 19ZM11.75 12.25Q11.75 12.25 11.75 12.25Q11.75 12.25 11.75 12.25Q11.75 12.25 11.75 12.25Q11.75 12.25 11.75 12.25Q11.75 12.25 11.75 12.25Q11.75 12.25 11.75 12.25Q11.75 12.25 11.75 12.25Q11.75 12.25 11.75 12.25Q11.75 12.25 11.75 12.25Q11.75 12.25 11.75 12.25Q11.75 12.25 11.75 12.25Q11.75 12.25 11.75 12.25Z"/>
    </symbol>
    <symbol id="moon-auto" viewBox="0 0 24 24">
        <path d="M11 19q1.35 0 2.513-.538 1.162-.537 1.987-1.487-3.15-.2-5.325-2.488Q8 12.2 8 9q0-.325.025-.638.025-.312.075-.612-1.4.775-2.25 2.162Q5 11.3 5 13q0 2.5 1.75 4.25T11 19Zm0 2q-3.35 0-5.675-2.325Q3 16.35 3 13q0-3.35 2.325-5.675Q7.65 5 11 5q.125 0 .25.012.125.013.25.013-.725.8-1.113 1.812Q10 7.85 10 9q0 2.5 1.75 4.25T16 15q.8 0 1.525-.2.725-.2 1.375-.55-.45 2.875-2.662 4.812Q14.025 21 11 21Zm2.8-10L17 2h2l3.2 9h-1.9l-.7-2h-3.2l-.7 2Zm3.05-3.35h2.3L18 4Z"/>
    </symbol>
<!-- Social -->
    <symbol id="linkedin" viewBox="0 0 448 512">
        <path d="M100 448H7V149h93zM54 108C24 108 0 84 0 54a54 54 0 0 1 108 0c0 29-25 54-54 54zm394 340h-93V302c0-34 0-79-48-79s-56 38-56 77v148h-93V149h90v41h1c12-24 43-49 88-49 94 0 111 62 111 143v164z"/>
    </symbol>
    <symbol id="github" viewBox="0 0 496 512">
        <path d="M165.9 397.4c0 2-2.3 3.6-5.2 3.6-3.3.3-5.6-1.3-5.6-3.6 0-2 2.3-3.6 5.2-3.6 3-.3 5.6 1.3 5.6 3.6zm-31.1-4.5c-.7 2 1.3 4.3 4.3 4.9 2.6 1 5.6 0 6.2-2s-1.3-4.3-4.3-5.2c-2.6-.7-5.5.3-6.2 2.3zm44.2-1.7c-2.9.7-4.9 2.6-4.6 4.9.3 2 2.9 3.3 5.9 2.6 2.9-.7 4.9-2.6 4.6-4.6-.3-1.9-3-3.2-5.9-2.9zM244.8 8C106.1 8 0 113.3 0 252a250.7 250.7 0 0 0 169.5 239.2c12.8 2.3 17.3-5.6 17.3-12.1 0-6.2-.3-40.4-.3-61.4 0 0-70 15-84.7-29.8 0 0-11.4-29.1-27.8-36.6 0 0-22.9-15.7 1.6-15.4 0 0 24.9 2 38.6 25.8 21.9 38.6 58.6 27.5 72.9 20.9 2.3-16 8.8-27.1 16-33.7-55.9-6.2-112.3-14.3-112.3-110.5 0-27.5 7.6-41.3 23.6-58.9a94.5 94.5 0 0 1 2.6-67.9c20.9-6.5 69 27 69 27a235 235 0 0 1 125.6 0s48.1-33.6 69-27a94.4 94.4 0 0 1 2.6 67.9c16 17.7 25.8 31.5 25.8 58.9 0 96.5-58.9 104.2-114.8 110.5 9.2 7.9 17 22.9 17 46.4 0 33.7-.3 75.4-.3 83.6 0 6.5 4.6 14.4 17.3 12.1C428.2 457.8 496 362.9 496 252 496 113.3 383.5 8 244.8 8zM97.2 352.9c-1.3 1-1 3.3.7 5.2 1.6 1.6 3.9 2.3 5.2 1 1.3-1 1-3.3-.7-5.2-1.6-1.6-3.9-2.3-5.2-1zm-10.8-8.1c-.7 1.3.3 2.9 2.3 3.9 1.6 1 3.6.7 4.3-.7.7-1.3-.3-2.9-2.3-3.9-2-.6-3.6-.3-4.3.7zm32.4 35.6c-1.6 1.3-1 4.3 1.3 6.2 2.3 2.3 5.2 2.6 6.5 1 1.3-1.3.7-4.3-1.3-6.2-2.2-2.3-5.2-2.6-6.5-1zm-11.4-14.7c-1.6 1-1.6 3.6 0 5.9 1.6 2.3 4.3 3.3 5.6 2.3 1.6-1.3 1.6-3.9 0-6.2-1.4-2.3-4-3.3-5.6-2z"/>
    </symbol>
    <symbol id="gitlab" viewBox="0 0 512 512">
        <path d="m510.5 284.5-27.3-84v.1-.1L429.1 33.9a21.3 21.3 0 0 0-20.4-14.6A21 21 0 0 0 388.5 34L337 192.2H175L123.5 34a21 21 0 0 0-20.2-14.7A21.5 21.5 0 0 0 82.8 34l-54 166.5v.1L1.5 284.4a30.6 30.6 0 0 0 11.1 34.3L249 490.4h.1l.3.3-.3-.2h.1a12 12 0 0 0 1.2.8h.1l.1.1c.1 0 0 0 0 0h.1l.2.1.6.3.6.2h.1l.2.1h.2v.1l.9.2.3.1h.5a12 12 0 0 0 1.8.2 12 12 0 0 0 1.7-.1h.4l.1-.1h.4l.8-.3H259.7l.1-.1c0-.1.1 0 .1 0l.7-.3.6-.3H261.5v-.1l.2-.1a12.3 12.3 0 0 0 1.2-.7v-.1h.2l236.3-171.7a30.6 30.6 0 0 0 11-34.3Zm-101.7-235 46.3 142.7h-92.6Zm-305.6 0 46.4 142.7H57ZM26.8 299.3a6.5 6.5 0 0 1-2.3-7.4l20.3-62.4 149 191.1Zm38.3-83h92.4l65.9 203ZM248.5 490l-.2-.1a8.4 8.4 0 0 1-.8-.7h.1a12.2 12.2 0 0 0 1.1 1h.1l-.3-.2Zm7.5-48.5-38.8-119.4-34.4-106h146.5Zm8 48.1-.3.3-.2.1-.3.2a11.7 11.7 0 0 0 1.1-1h.1l-.5.4Zm90.6-273.4H447l-18.9 24.2-139.5 178.7Zm130.6 83-167 121.3 149-191 20.3 62.3a6.5 6.5 0 0 1-2.3 7.3Z"/>
    </symbol>
    <symbol id="twitter" viewBox="0 0 512 512">
        <path d="M459.37 151.72c.33 4.54.33 9.1.33 13.64 0 138.72-105.59 298.56-298.56 298.56-59.45 0-114.68-17.22-161.14-47.1 8.45.97 16.57 1.3 25.34 1.3 49.05 0 94.21-16.58 130.27-44.84a105.12 105.12 0 0 1-98.1-72.77c6.49.97 12.99 1.62 19.81 1.62 9.42 0 18.84-1.3 27.61-3.57A104.95 104.95 0 0 1 20.8 195.57v-1.3a105.68 105.68 0 0 0 47.43 13.32 104.86 104.86 0 0 1-46.78-87.39c0-19.49 5.2-37.36 14.3-52.95a298.27 298.27 0 0 0 216.36 109.8c-1.62-7.8-2.6-15.91-2.6-24.03 0-57.83 46.78-104.94 104.94-104.94 30.2 0 57.5 12.67 76.67 33.14a206.6 206.6 0 0 0 66.6-25.34 104.65 104.65 0 0 1-46.14 57.83c21.12-2.28 41.59-8.13 60.43-16.25a225.57 225.57 0 0 1-52.63 54.26z"/>
    </symbol>
    <symbol id="reddit" viewBox="0 0 512 512">
        <path d="M440.3 203.5c-15 0-28.2 6.2-37.9 15.9-35.7-24.7-83.8-40.6-137.1-42.3L293 52.3l88.2 19.8c0 21.6 17.6 39.2 39.2 39.2 22 0 39.7-18.1 39.7-39.7s-17.6-39.7-39.7-39.7c-15.4 0-28.7 9.3-35.3 22l-97.4-21.6c-4.9-1.3-9.7 2.2-11 7.1L246.3 177c-52.9 2.2-100.5 18.1-136.3 42.8a53.15 53.15 0 0 0-38.4-16.3c-55.6 0-73.8 74.6-22.9 100.1-1.8 7.9-2.6 16.3-2.6 24.7 0 83.8 94.4 151.7 210.3 151.7 116.4 0 210.8-67.9 210.8-151.7 0-8.4-.9-17.2-3.1-25.1 49.9-25.6 31.5-99.7-23.8-99.7zM129.4 308.9c0-22 17.6-39.7 39.7-39.7 21.6 0 39.2 17.6 39.2 39.7 0 21.6-17.6 39.2-39.2 39.2-22 .1-39.7-17.6-39.7-39.2zm214.3 93.5c-36.4 36.4-139.1 36.4-175.5 0-4-3.5-4-9.7 0-13.7 3.5-3.5 9.7-3.5 13.2 0 27.8 28.5 120 29 149 0 3.5-3.5 9.7-3.5 13.2 0 4.1 4 4.1 10.2.1 13.7zm-.8-54.2c-21.6 0-39.2-17.6-39.2-39.2 0-22 17.6-39.7 39.2-39.7 22 0 39.7 17.6 39.7 39.7-.1 21.5-17.7 39.2-39.7 39.2z"/>
    </symbol>
    <symbol id="instagram" viewBox="0 0 448 512">
        <path d="M224.1 141c-63.6 0-114.9 51.3-114.9 114.9s51.3 114.9 114.9 114.9S339 319.5 339 255.9 287.7 141 224.1 141zm0 189.6c-41.1 0-74.7-33.5-74.7-74.7s33.5-74.7 74.7-74.7 74.7 33.5 74.7 74.7-33.6 74.7-74.7 74.7zm146.4-194.3c0 14.9-12 26.8-26.8 26.8a26.8 26.8 0 1 1 26.8-26.8zm76.1 27.2c-1.7-35.9-9.9-67.7-36.2-93.9-26.2-26.2-58-34.4-93.9-36.2-37-2.1-147.9-2.1-184.9 0-35.8 1.7-67.6 9.9-93.9 36.1s-34.4 58-36.2 93.9c-2.1 37-2.1 147.9 0 184.9 1.7 35.9 9.9 67.7 36.2 93.9s58 34.4 93.9 36.2c37 2.1 147.9 2.1 184.9 0 35.9-1.7 67.7-9.9 93.9-36.2 26.2-26.2 34.4-58 36.2-93.9 2.1-37 2.1-147.8 0-184.8zM398.8 388a75.63 75.63 0 0 1-42.6 42.6c-29.5 11.7-99.5 9-132.1 9s-102.7 2.6-132.1-9A75.63 75.63 0 0 1 49.4 388c-11.7-29.5-9-99.5-9-132.1s-2.6-102.7 9-132.1A75.63 75.63 0 0 1 92 81.2c29.5-11.7 99.5-9 132.1-9s102.7-2.6 132.1 9a75.63 75.63 0 0 1 42.6 42.6c11.7 29.5 9 99.5 9 132.1s2.7 102.7-9 132.1z"/>
    </symbol>
<!-- Footer -->
    <symbol id="copyright" viewBox="0 0 24 24">
        <path d="M10 16H14Q14.425 16 14.713 15.712Q15 15.425 15 15V13H13V14H11V10H13V11H15V9Q15 8.575 14.713 8.287Q14.425 8 14 8H10Q9.575 8 9.288 8.287Q9 8.575 9 9V15Q9 15.425 9.288 15.712Q9.575 16 10 16ZM12 22Q9.925 22 8.1 21.212Q6.275 20.425 4.925 19.075Q3.575 17.725 2.788 15.9Q2 14.075 2 12Q2 9.925 2.788 8.1Q3.575 6.275 4.925 4.925Q6.275 3.575 8.1 2.787Q9.925 2 12 2Q14.075 2 15.9 2.787Q17.725 3.575 19.075 4.925Q20.425 6.275 21.212 8.1Q22 9.925 22 12Q22 14.075 21.212 15.9Q20.425 17.725 19.075 19.075Q17.725 20.425 15.9 21.212Q14.075 22 12 22ZM12 12Q12 12 12 12Q12 12 12 12Q12 12 12 12Q12 12 12 12Q12 12 12 12Q12 12 12 12Q12 12 12 12Q12 12 12 12ZM12 20Q15.325 20 17.663 17.663Q20 15.325 20 12Q20 8.675 17.663 6.337Q15.325 4 12 4Q8.675 4 6.338 6.337Q4 8.675 4 12Q4 15.325 6.338 17.663Q8.675 20 12 20Z"/>    </symbol>
    <symbol id="love" viewBox="0 0 24 24">
        <path d="M12 21 10.55 19.7Q6.625 16.2 4.312 13.612Q2 11.025 2 8.15Q2 5.8 3.575 4.225Q5.15 2.65 7.5 2.65Q8.825 2.65 10 3.212Q11.175 3.775 12 4.75Q12.825 3.775 14 3.212Q15.175 2.65 16.5 2.65Q18.85 2.65 20.425 4.225Q22 5.8 22 8.15Q22 11.025 19.688 13.612Q17.375 16.2 13.45 19.7Z"/>
    </symbol>
</svg>